<?xml version="1.0" encoding="UTF-8"?>
<svg width="197px" height="48px" viewBox="0 0 197 48" version="1.1" xmlns="http://www.w3.org/2000/svg" xmlns:xlink="http://www.w3.org/1999/xlink">
    <!-- Generator: Sketch 47.1 (45422) - http://www.bohemiancoding.com/sketch -->
    <title>Logo</title>
    <desc>Created with Sketch.</desc>
    <defs>
        <filter x="-1.3%" y="-3.3%" width="102.6%" height="113.3%" filterUnits="objectBoundingBox" id="filter-1">
            <feOffset dx="0" dy="2" in="SourceAlpha" result="shadowOffsetOuter1"></feOffset>
            <feGaussianBlur stdDeviation="0.5" in="shadowOffsetOuter1" result="shadowBlurOuter1"></feGaussianBlur>
            <feColorMatrix values="0 0 0 0 0   0 0 0 0 0   0 0 0 0 0  0 0 0 0.2 0" type="matrix" in="shadowBlurOuter1" result="shadowMatrixOuter1"></feColorMatrix>
            <feMerge>
                <feMergeNode in="shadowMatrixOuter1"></feMergeNode>
                <feMergeNode in="SourceGraphic"></feMergeNode>
            </feMerge>
        </filter>
        <polygon id="path-2" points="4.34527789 4.33962 4.34527789 0.87192 0.840685581 0.87192 0.840685581 4.33962 4.34527789 4.33962"></polygon>
        <polygon id="path-4" points="0.000538670812 45 51.8341376 45 51.8341376 0.00018 0.000538670812 0.00018"></polygon>
        <polygon id="path-6" points="23.2220987 39.1284 23.2220987 34.9263 4.45121648 2.3364 0.820575204 0.2358"></polygon>
        <path d="M14.8826588,26.5068008 C14.8967535,26.5069102 14.8764681,23.4557978 14.8676471,23.4477 C14.8694118,23.4459 14.8967647,21.9123 14.8905882,21.9024 C14.8932353,21.9069 14.8923529,21.4569 14.8923529,21.006 C14.8914706,20.556 14.8914706,20.1051 14.8941176,20.1096 C14.8888235,20.0826 14.8835294,17.9451 14.8720588,17.9406 C14.7758824,17.7561 14.6452941,17.5185 14.4926471,17.235 C14.3867647,17.0433 14.2702941,16.8318 14.1441176,16.6014 C12.6855882,13.9662 9.93529412,9.1413 9.18176471,7.7013 C8.26411765,5.9508 8.13617647,5.4468 7.21941176,3.6981 C7.15588235,3.7008 6.13147059,3.105 6.10235294,3.0888 C5.21823529,2.5992 4.40470588,2.1969 3.80911765,1.9539 C3.49676471,1.8252 2.45911765,1.3473 2.43617647,1.3311 C2.42647059,1.3266 0.660882353,0.5958 0.0661764706,0.3528 C0.0679411765,0.3546 1.37735294,2.6712 2.68588235,4.9869 C3.99617647,7.3044 5.30647059,9.6219 5.30647059,9.6201 C5.30735294,9.5958 11.7988235,21.0672 14.0894118,25.1136 C14.2897059,25.4637 14.4564706,25.7616 14.5852941,25.9884 C14.7758824,26.3214 14.8826471,26.5068 14.8826471,26.5068 C14.882651,26.5068005 14.8826549,26.5068008 14.8826588,26.5068008 L0.0661764706,26.5068008 L0.0661764706,0.3528 L14.8941176,0.3528 L14.8941176,26.5068008 L14.8826585,26.5068008 L14.8826588,26.5068008 Z" id="path-8"></path>
    </defs>
    <g id="Set-1" stroke="none" stroke-width="1" fill="none" fill-rule="evenodd">
        <g id="Hover-states" transform="translate(-102.000000, -382.000000)">
            <g id="Logo" filter="url(#filter-1)" transform="translate(103.000000, 382.000000)">
                <polygon id="Fill-1" fill="#000000" points="72.6569747 36.5 62.3821816 36.5 55.5 9.5 64.090141 9.51771305 67.6160704 27.5673096 67.6925184 27.5673096 71.0646195 9.51771305 79.5 9.5"></polygon>
                <g id="Group-33">
                    <path d="M107.704984,23.20137 C107.765136,23.19597 107.177985,23.19597 107.412307,23.19597 C105.556586,23.19597 103.873239,24.42087 103.873239,27.10197 L103.873239,36.37737 L97.2305305,36.39177 L97.2305305,16.68897 L103.975587,16.70787 L103.975587,19.63287 L104.050103,19.63287 C104.604934,17.14527 105.863628,16.56927 107.745385,16.56927 L107.704984,23.20137 Z" id="Fill-2" fill="#000000"></path>
                    <path d="M130.6204,36.39204 L130.6204,24.07554 C130.6204,23.23584 129.790847,22.62114 128.75211,22.62114 C127.679257,22.62114 126.943074,23.46444 126.943074,24.19164 L126.943074,36.37674 L120.365903,36.39204 L120.365903,24.15294 C120.365903,23.23584 119.617151,22.62114 118.580209,22.62114 C117.730007,22.62114 116.755013,23.19624 116.755013,24.19164 L116.755013,36.37674 L109.56286,36.39204 L109.56286,16.68834 L116.159782,16.70814 L116.159782,18.41814 L116.234298,18.41814 C117.203906,16.60104 119.422332,16.20774 121.383093,16.20774 C123.421962,16.20774 124.758764,16.49304 125.905235,17.87274 C127.055297,16.64604 128.499832,16.20774 130.278344,16.20774 C134.242961,16.20774 137.296327,18.86724 137.296327,22.85244 L137.296327,36.37674 L130.6204,36.39204 Z" id="Fill-4" fill="#000000"></path>
                    <path d="M156.883295,34.29234 C154.216875,36.28224 152.412328,36.83124 148.778993,36.83124 C142.776405,36.83124 138.515518,32.27364 138.515518,26.75664 C138.515518,19.90224 143.036762,15.84234 148.520431,15.84234 C152.931247,15.84234 156.303326,18.37134 157.896894,22.23864 L147.963805,29.97414 C148.485417,30.24324 149.373326,30.31794 150.039483,30.31974 C152.914189,30.33414 154.29588,29.96874 156.872522,28.07334 L156.883295,34.29234 Z M150.707435,22.73634 C150.113999,21.93264 149.373326,21.74004 148.446813,21.74004 C146.667403,21.74004 145.444621,23.46444 145.444621,25.18794 C145.444621,26.03124 145.593653,26.26074 145.739992,26.60454 L150.707435,22.73634 Z" id="Fill-6" fill="#000000"></path>
                    <path d="M190.30737,23.20137 C190.011101,23.16267 189.747153,23.19597 189.189628,23.19597 C187.338396,23.19597 185.652357,24.42087 185.652357,27.10197 L185.652357,36.37737 L179.009648,36.39177 L179.009648,16.68897 L185.7565,16.70787 L185.7565,19.63287 L185.831016,19.63287 C186.384051,17.14527 187.575412,16.70787 190.281335,16.70787 L190.30737,23.20137 Z" id="Fill-8" fill="#000000"></path>
                    <path d="M176.896712,34.29234 C174.2267,36.28224 172.423051,36.83124 168.791511,36.83124 C162.78623,36.83124 158.525344,32.27364 158.525344,26.75664 C158.525344,19.90224 163.043894,15.84234 168.530256,15.84234 C172.941072,15.84234 176.314947,18.37134 177.906719,22.23864 L167.974527,29.97414 C168.493447,30.24324 169.384049,30.31794 170.052001,30.31974 C172.923117,30.33414 174.305705,29.96874 176.882347,28.07334 L176.896712,34.29234 Z M170.718157,22.73634 C170.123824,21.93264 169.384049,21.74004 168.45574,21.74004 C166.676331,21.74004 165.456241,23.46444 165.456241,25.18794 C165.456241,26.03124 165.604376,26.26074 165.753408,26.60454 L170.718157,22.73634 Z" id="Fill-10" fill="#000000"></path>
                    <path d="M88.9383218,22.73643 C88.3457839,21.93183 87.6042138,21.74013 86.6785977,21.74013 C84.9000863,21.74013 83.675508,23.46453 83.675508,25.18803 C83.675508,26.03133 83.8245402,26.26083 83.9726747,26.60463 L88.9383218,22.73643 Z M95.1159782,34.29243 C92.4477621,36.28233 90.6423171,36.83133 87.0116759,36.83133 C81.0081897,36.83133 76.745508,32.27373 76.745508,26.75673 C76.745508,19.90233 81.2676494,15.84243 86.7522161,15.84243 C91.1621345,15.84243 94.5342138,18.37053 96.1277816,22.23873 L86.1964874,29.97423 C86.7145091,30.24333 87.6042138,30.31803 88.2712678,30.31983 C91.1441788,30.33333 92.527665,29.96883 95.104307,28.07343 L95.1159782,34.29243 Z" id="Fill-12" fill="#000000"></path>
                    <g id="Group-16" transform="translate(190.330354, 12.600000)">
                        <mask id="mask-3" fill="white">
                            <use xlink:href="#path-2"></use>
                        </mask>
                        <g id="Clip-15"></g>
                        <path d="M2.59495686,2.48292 C2.85172328,2.48292 3.07886281,2.46402 3.07886281,2.15802 C3.07886281,1.90962 2.85351885,1.86372 2.64343723,1.86372 L2.23225185,1.86372 L2.23225185,2.48292 L2.59495686,2.48292 Z M2.23225185,3.60522 L1.93059619,3.60522 L1.93059619,1.60632 L2.68922425,1.60632 C3.16235678,1.60632 3.39308745,1.78182 3.39308745,2.17602 C3.39308745,2.53332 3.17133463,2.68902 2.87865682,2.72592 L3.44515896,3.60522 L3.10489856,3.60522 L2.57789895,2.73852 L2.23225185,2.73852 L2.23225185,3.60522 Z M2.598548,4.05072 C3.37962068,4.05072 3.99639876,3.43692 3.99639876,2.60262 C3.99639876,1.78182 3.37962068,1.16262 2.598548,1.16262 C1.80759969,1.16262 1.19082161,1.78182 1.19082161,2.60262 C1.19082161,3.43692 1.80759969,4.05072 2.598548,4.05072 L2.598548,4.05072 Z M0.840685581,2.60262 C0.840685581,1.60632 1.64599845,0.87192 2.598548,0.87192 C3.54122192,0.87192 4.345637,1.60632 4.345637,2.60262 C4.345637,3.60522 3.54122192,4.33962 2.598548,4.33962 C1.64599845,4.33962 0.840685581,3.60522 0.840685581,2.60262 L0.840685581,2.60262 Z" id="Fill-14" fill="#221E1F" mask="url(#mask-3)"></path>
                    </g>
                    <path d="M48.4038818,0.43245 L31.8137186,0.43245 C31.8137186,0.43245 27.6623622,7.65405 25.9197621,10.68975 C24.1861399,7.64505 20.078775,0.43245 20.078775,0.43245 L0.63904314,0.43245 L26.0023583,44.47395 L51.3692647,0.43245 L48.4038818,0.43245 Z" id="Fill-17" fill="#FEFEFE"></path>
                    <path d="M10.8336576,14.7402 L25.9164403,40.9284 L32.6848391,29.1771 C30.8291182,26.8956 24.4880649,20.1411 10.8336576,14.7402" id="Fill-19" fill="#221E1F"></path>
                    <path d="M10.4102623,14.00625 L10.8340167,14.73975 C24.488424,20.14065 30.8294773,26.89515 32.6851982,29.17665 L36.6982958,22.21065 C28.9935076,16.72425 13.8757112,14.46345 10.4102623,14.00625" id="Fill-21" fill="#FEFEFE"></path>
                    <path d="M25.9285604,13.85595 C25.9070136,13.89105 25.8728978,13.90635 25.8289063,13.90635 C25.7831193,13.90635 25.7445146,13.88385 25.7247633,13.84605 L18.9976627,2.03535 L3.51716129,2.03535 L10.4103521,14.00625 C13.875801,14.46345 28.9935974,16.72425 36.6983855,22.21065 L48.3166172,2.03535 L32.7176082,2.03535 L25.9285604,13.85595 Z" id="Fill-23" fill="#045D30"></path>
                    <g id="Group-27">
                        <mask id="mask-5" fill="white">
                            <use xlink:href="#path-4"></use>
                        </mask>
                        <g id="Clip-26"></g>
                        <path d="M48.3166172,0.85698 L50.3509973,0.85698 C49.6426452,2.08908 26.6243436,42.05268 25.9159914,43.28298 C25.2067415,42.05088 2.19203109,2.08908 1.48278119,0.85698 L19.679979,0.85698 C19.9169942,1.27368 25.8289063,11.66058 25.8289063,11.66058 C25.8289063,11.66058 31.8009701,1.27008 32.0379852,0.85698 L48.3166172,0.85698 Z M51.0925674,0.00018 L31.5442037,0.00018 C31.5442037,0.00018 26.4887781,8.79408 25.8333953,9.93438 C25.1833991,8.79318 20.1773517,0.00018 20.1773517,0.00018 L0.000538670812,0.00018 L25.9159914,45.00018 L51.8341376,0.00018 L51.0925674,0.00018 Z" id="Fill-25" fill="#231F20" mask="url(#mask-5)"></path>
                    </g>
                    <g id="Group-30" transform="translate(2.693354, 1.800000)">
                        <mask id="mask-7" fill="white">
                            <use xlink:href="#path-6"></use>
                        </mask>
                        <g id="Clip-29"></g>
                        <polygon id="Fill-28" mask="url(#mask-7)" points="23.2220987 39.1284 23.2220987 34.9263 4.45121648 2.3364 0.820575204 0.2358"></polygon>
                    </g>
                    <polygon id="Fill-31" points="18.9962262 2.0358 17.7851147 4.1364 7.14367276 4.1364 3.50405363 2.0304"></polygon>
                </g>
                <path d="M4,2.00274194 C4.00093101,2.00274194 5.19728169,4.03360468 6.39270136,6.06355345 L6.39270136,6.06355345 C7.58998306,8.09624415 8.78726475,10.1280209 8.78819577,10.124365 L8.78819577,10.124365 C8.79005779,10.1124832 9.38404358,11.1288286 9.97802936,12.1460879 L9.97802936,12.1460879 C10.5682911,13.1578634 11.1585528,14.1696388 11.1594838,14.1668969 L11.1594838,14.1668969 C11.1762421,14.1705528 12.925614,14.4036176 12.9442342,14.4081875 L12.9442342,14.4081875 C12.9805437,14.4200692 13.7002162,14.5489404 14.0577248,14.5918974 L14.0577248,14.5918974 C14.0782071,14.5937254 15.6423076,14.8542096 15.6544108,14.8542096 L15.6544108,14.8542096 C15.6832721,14.8542096 17.0220677,15.0095861 16.9997234,14.9995323 L16.9997234,14.9995323 C16.0333327,13.2245839 13.844523,9.95436475 12.8762704,8.17850232 L12.8762704,8.17850232 C11.9098797,6.40172591 11.7748829,5.88989732 10.8075612,4.11312091 L10.8075612,4.11312091 C10.7405284,4.11586285 9.25556389,4.11586285 9.28256325,4.13505642 L9.28256325,4.13505642 C9.29839045,4.14602418 8.38134343,3.83801304 8.02383475,3.73016345 L8.02383475,3.73016345 C7.33302369,3.51994813 6.5630766,3.16715199 6.58821393,3.18543158 L6.58821393,3.18543158 C6.59100696,3.18725954 6.02308952,2.89021616 5.4188626,2.59317278 L5.4188626,2.59317278 C4.81463568,2.29704338 4.17130625,2 4.01955126,2 L4.01955126,2 C4.01117215,2 4.00465506,2.00091398 4,2.00274194" id="Fill-34"></path>
                <path d="M45.5807122,3.75216344 C45.2598854,3.89847444 44.4091215,5.04933536 44.1637273,5.00918904 L44.1637273,5.00918904 C43.8505392,4.95833705 42.6302516,5.10821661 41.9122107,5.20456776 L41.9122107,5.20456776 C41.7642103,5.22508698 41.6248034,5.24560621 41.5035385,5.26434115 L41.5035385,5.26434115 C40.7463491,5.38834865 40.4665805,6.01373896 40.3825545,6.13596217 L40.3825545,6.13596217 C40.1476634,6.50352395 40.1094698,6.59809082 39.5461132,7.49379963 L39.5461132,7.49379963 C38.7440463,8.76866803 37.8789598,10.148809 37.0682993,11.4450888 L37.0682993,11.4450888 C36.5421815,12.2845927 36.0160638,13.125881 35.4899461,13.9680614 L35.4899461,13.9680614 C34.3307684,15.8237131 33.1715907,17.6829334 32,19.5332322 L32,19.5332322 C32.2874073,19.6670533 32.5814985,19.7785708 32.8660413,19.9222054 L32.8660413,19.9222054 C33.4561335,20.2201802 34.0023029,20.4628424 34.1044709,20.5199393 L34.1044709,20.5199393 C34.4816333,20.7233473 35.2455066,21.0882327 35.7028758,21.3585512 L35.7028758,21.3585512 C35.8919344,21.4709608 36.033251,21.5789098 36.6405302,22 L36.6405302,22 C37.2936419,21.0864484 39.0505504,18.2494424 40.9420917,15.1653136 L40.9420917,15.1653136 C41.7097843,13.9127487 42.4746124,12.6601838 43.2384857,11.408511 L43.2384857,11.408511 C44.3604246,9.56802569 45.4040665,7.85154786 46.1918108,6.56686591 L46.1918108,6.56686591 C46.7351157,5.67650995 48.765109,2.38540459 49,2.01248996 L49,2.01248996 C48.9904516,2.0044607 48.9751741,2 48.9541676,2 L48.9541676,2 C48.5187598,2 45.7754999,3.66294942 45.5807122,3.75216344" id="Fill-36"></path>
                <g id="Group-40" transform="translate(11.000000, 14.000000)">
                    <mask id="mask-9" fill="white">
                        <use xlink:href="#path-8"></use>
                    </mask>
                    <g id="Clip-39"></g>
                    <path d="M2.68588235,4.9869 C3.99617647,7.3044 5.30647059,9.6219 5.30647059,9.6201 L5.30647059,9.6201 C5.30735294,9.5958 11.7988235,21.0672 14.0894118,25.1136 L14.0894118,25.1136 C14.2897059,25.4637 14.4564706,25.7616 14.5852941,25.9884 L14.5852941,25.9884 C14.7758824,26.3214 14.8826471,26.5068 14.8826471,26.5068 L14.8826471,26.5068 C14.8967647,26.5086 14.8764706,23.4558 14.8676471,23.4477 L14.8676471,23.4477 C14.8694118,23.4459 14.8967647,21.9123 14.8905882,21.9024 L14.8905882,21.9024 C14.8932353,21.9069 14.8923529,21.4569 14.8923529,21.006 L14.8923529,21.006 C14.8914706,20.556 14.8914706,20.1051 14.8941176,20.1096 L14.8941176,20.1096 C14.8888235,20.0826 14.8835294,17.9451 14.8720588,17.9406 L14.8720588,17.9406 C14.7758824,17.7561 14.6452941,17.5185 14.4926471,17.235 L14.4926471,17.235 C14.3867647,17.0433 14.2702941,16.8318 14.1441176,16.6014 L14.1441176,16.6014 C12.6855882,13.9662 9.93529412,9.1413 9.18176471,7.7013 L9.18176471,7.7013 C8.26411765,5.9508 8.13617647,5.4468 7.21941176,3.6981 L7.21941176,3.6981 C7.15588235,3.7008 6.13147059,3.105 6.10235294,3.0888 L6.10235294,3.0888 C5.21823529,2.5992 4.40470588,2.1969 3.80911765,1.9539 L3.80911765,1.9539 C3.49676471,1.8252 2.45911765,1.3473 2.43617647,1.3311 L2.43617647,1.3311 C2.42647059,1.3266 0.660882353,0.5958 0.0661764706,0.3528 L0.0661764706,0.3528 C0.0679411765,0.3546 1.37735294,2.6712 2.68588235,4.9869" id="Fill-38" mask="url(#mask-9)"></path>
                </g>
                <path d="M33,2.00091429 C33,2.09234286 33.7685436,3.4464 33.7685436,3.53691429 L33.7685436,3.53691429 C33.7685436,3.7216 33.9509538,3.89897143 33.9449023,4.08548571 L33.9449023,4.08548571 C33.9440378,4.11931429 34.1532477,4.91017143 34.119532,4.91748571 L34.119532,4.91748571 C33.9129157,4.97874286 33.3864331,5.07108571 33.3864331,5.23565714 L33.3864331,5.23565714 C35.9176993,5.23565714 36.9741225,6 39.5053887,6 L39.5053887,6 C42.050487,6 39.9462855,5.51542857 42.4913838,5.51542857 L42.4913838,5.51542857 C42.8536107,5.43588571 43.7267593,5.21828571 43.903118,4.91931429 L43.903118,4.91931429 C43.910034,4.90377143 44.4615872,4.20434286 44.650049,4.03702857 L44.650049,4.03702857 C44.6656101,4.0224 45.2552014,3.60457143 45.2508789,3.6192 L45.2508789,3.6192 C45.2474209,3.6384 47.9472653,2.03748571 48,2.00091429 L48,2.00091429 C45.4549017,2.00091429 42.0427065,2 39.4993372,2 L39.4993372,2 C36.9689355,2 35.5295372,2.00091429 33,2.00091429" id="Fill-41"></path>
                <path d="M28.6451474,9.77483357 C28.1011405,10.7726145 27.3092318,12.2537528 26.6326662,13.4881869 L26.6326662,13.4881869 C26.4028405,13.9112387 26.1859264,14.3077927 26,14.6476961 L26,14.6476961 C26.0120508,14.6559196 26.0284054,14.6641431 26.0438993,14.6714528 L26.0438993,14.6714528 C26.1377233,14.7217073 26.2874973,14.79115 26.3554982,14.833181 L26.3554982,14.833181 C26.4398537,14.8861767 26.5224876,14.9364313 26.6068431,14.9885132 L26.6068431,14.9885132 C26.7049709,15.0469913 26.7419841,15.0707479 26.8401119,15.1310534 L26.8401119,15.1310534 C26.9098343,15.1739982 27.964278,15.9552278 28.0314181,16 L28.0314181,16 C28.2190661,15.6582692 28.2233699,14.8030283 28.5031203,14.4092155 L28.5031203,14.4092155 C29.3268776,13.2551886 29.9647084,11.9549667 30.5095761,10.956272 L30.5095761,10.956272 C31.2575855,9.58478005 33.2519905,6.30727059 34,4.93577862 L34,4.93577862 C33.9956961,4.59313406 33.8442006,4.18652917 33.8261244,4.10338076 L33.8261244,4.10338076 C33.7934151,3.9644955 33.651388,3.14032111 33.6117926,3.02793369 L33.6117926,3.02793369 C33.4404992,2.53452552 33.197762,2.21289649 33.1142673,2.16172823 L33.1142673,2.16172823 C33.0462664,2.11878345 32.9782655,2.0776661 32.9102647,2.03472132 L32.9102647,2.03472132 C32.8973531,2.02741157 32.879277,2.00913719 32.8663654,2 L32.8663654,2 C32.1192167,3.37331941 29.3931569,8.4033416 28.6451474,9.77483357" id="Fill-43"></path>
                <path d="M18.9815379,2.27758545 C18.9815379,2.27494178 18.9436058,2.31019072 18.89248,2.3577768 L18.89248,2.3577768 C18.8693909,2.37804494 18.843828,2.40183798 18.8182651,2.42386857 L18.8182651,2.42386857 C18.7968253,2.44413672 18.7753854,2.46352364 18.7555947,2.48379178 L18.7555947,2.48379178 C18.7498225,2.48731667 18.7440502,2.49348524 18.7366287,2.4996538 L18.7366287,2.4996538 C18.7300318,2.50494115 18.7242596,2.51199094 18.7168381,2.51639705 L18.7168381,2.51639705 C18.6690107,2.56310191 18.6310786,2.59835085 18.630254,2.60099452 L18.630254,2.60099452 C18.6286048,2.60628187 18.2657764,3.0698055 17.7487459,3.75980361 L17.7487459,3.75980361 C17.5153813,4.06999433 17.6093868,3.96777239 17.3405639,4.66746396 L17.3405639,4.66746396 C17.1385345,5.18826714 17.0107199,6.19198086 17,6.17171272 L17,6.17171272 C17.2275924,6.59822496 17.490643,6.78328193 17.6918478,7.09347265 L17.6918478,7.09347265 C18.4290492,8.23553849 19.0178207,8.78982816 19.6725611,10.2200541 L19.6725611,10.2200541 C20.3512152,11.7057972 21.0142016,13.1756782 21.8132487,14.7513061 L21.8132487,14.7513061 C21.9658016,15.0518034 22.0705271,15.5223768 22.2337998,15.8325675 L22.2337998,15.8325675 C22.2634858,15.8863222 22.2923472,15.9436017 22.3220331,15.9973563 L22.3220331,15.9973563 C22.3228577,15.9982376 22.3228577,15.9991188 22.3236823,16 L22.3236823,16 C22.5595208,15.8572418 22.8893648,15.673066 23.2398241,15.4827217 L23.2398241,15.4827217 C23.711501,15.2262856 24.206267,14.9566312 24.5253911,14.762762 L24.5253911,14.762762 C24.8651304,14.5556745 25.0160341,14.7019576 25.4044254,14.7363253 L25.4044254,14.7363253 C25.6608791,14.7574747 25.9750555,14.5213067 25.9354743,14.3582804 L25.9354743,14.3582804 C25.9247543,14.3080506 25.9585633,14.2287405 25.9833016,14.1406181 L25.9833016,14.1406181 C26.0039169,14.0657141 26.0088646,13.9573236 25.978354,13.8885882 L25.978354,13.8885882 C25.9585633,13.8462894 25.9412465,13.8128029 25.9264036,13.7828413 L25.9264036,13.7828413 C25.9074375,13.7484736 25.9074375,13.6991251 25.8942438,13.6726884 L25.8942438,13.6726884 C25.8645578,13.6171713 25.832398,13.5916158 25.8167304,13.4929187 L25.8167304,13.4929187 C25.8076597,13.4294706 25.7532354,13.4876314 25.6814944,13.5457922 L25.6814944,13.5457922 C25.6056303,13.6065966 25.5108001,13.667401 25.4275145,13.5872097 L25.4275145,13.5872097 C25.4250407,13.5863284 25.4250407,13.5836848 25.424216,13.5828036 L25.424216,13.5828036 C25.3912316,13.5193554 25.3582472,13.4567886 25.3252628,13.3951029 L25.3252628,13.3951029 C25.138901,13.0461384 24.959136,12.7095109 24.7818448,12.3799333 L24.7818448,12.3799333 C23.1309756,9.29741298 21.4834047,6.21224901 19.8358339,3.12444137 L19.8358339,3.12444137 C19.6371029,2.75080254 19.4375472,2.3727576 19.2388162,2 L19.2388162,2 C19.169549,2.04141751 18.9790641,2.28463524 18.9815379,2.27758545" id="Fill-45"></path>
                <path d="M31.5617991,22.7242075 C31.0783851,23.567147 30.5957974,24.4048991 30,25.4613833 L30,25.4613833 C30.1561799,25.60317 30.431354,25.8876081 30.6751269,26.1322767 L30.6751269,26.1322767 C30.9007201,26.3648415 31.0990438,26.5498559 31.2006847,26.6553314 L31.2006847,26.6553314 C31.3609963,26.8230548 32.1253689,27.6357349 32.3129501,27.840634 L32.3129501,27.840634 C32.4476449,27.9850144 32.7302562,28.3204611 33.310353,29 L33.310353,29 C33.9953961,27.9236311 34.6259001,26.7132565 35.225003,25.6299712 L35.225003,25.6299712 C35.8191477,24.548415 36.4083343,23.3674352 37,22.318732 L37,22.318732 C36.8182033,22.1492795 36.0901901,21.6270893 35.9232676,21.525072 L35.9232676,21.525072 C35.7051116,21.3884726 35.0258529,20.9804035 34.8027388,20.851585 L34.8027388,20.851585 C34.5193011,20.689049 34.1490969,20.5057637 33.8640066,20.3674352 L33.8640066,20.3674352 C33.5574312,20.2221902 33.3045685,20.1054755 33.1178137,20 L33.1178137,20 C32.5253217,21.0504323 32.0443867,21.8847262 31.5617991,22.7242075" id="Fill-47"></path>
                <path d="M17.4955764,2.00176415 C16.8215156,2.00264622 16.098987,2.00264622 15.3944095,2.00264622 L15.3944095,2.00264622 C14.3344018,2.00264622 13.3183742,2.00176415 12.5796897,2.00176415 L12.5796897,2.00176415 C10.7406078,2.00176415 5.83908193,2.00264622 4,2.00264622 L4,2.00264622 C4.05564816,2.02646221 4.96217464,2.4869046 5.60930889,2.81856426 L5.60930889,2.81856426 C5.87408642,2.95352151 6.09667906,3.06642692 6.20528273,3.12199756 L6.20528273,3.12199756 C6.42877292,3.23666712 6.72586229,3.31340752 6.96640595,3.38926584 L6.96640595,3.38926584 C7.39902552,3.52863346 7.67367611,3.65124169 7.72932427,3.6741756 L7.72932427,3.6741756 C7.85498141,3.72974623 8.2687524,3.87176008 8.39530709,3.92909486 L8.39530709,3.92909486 C8.41595076,3.93703352 8.46531607,3.97143439 8.54789076,4.01377392 L8.54789076,4.01377392 C8.64662136,4.06317004 8.80638543,4.14873117 8.88267727,4.19989144 L8.88267727,4.19989144 C9.11424542,4.35601846 10.8563918,6.41124983 11.2387486,6.92638078 L11.2387486,6.92638078 C11.5304526,7.31978559 12.7259905,8.28918442 13.1316835,8.84489076 L13.1316835,8.84489076 C13.606488,9.49674311 14.0085908,9.99952504 14.3523529,10.3982223 L14.3523529,10.3982223 C15.2732402,11.4734699 15.7498397,11.7901343 16.0226952,12.2329353 L16.0226952,12.2329353 C17.7056033,12.2329353 15.623285,12.1059167 17.3070907,12.1059167 L17.3070907,12.1059167 C17.982049,12.1059167 18.9998718,12.4014113 20.0706501,12.7436559 L20.0706501,12.7436559 C20.7815105,12.9703488 21.5157071,13.2190935 22.1897679,13.4122676 L22.1897679,13.4122676 C22.5568663,13.5189985 23.1546352,13.9282806 23.7156046,14.304926 L23.7156046,14.304926 C24.2568278,14.6674583 24.7639441,15 25,15 L25,15 C24.991922,14.988533 24.1266829,13.5454607 22.9984613,11.6401818 L22.9984613,11.6401818 C22.579305,10.9318768 22.1242467,10.1618266 21.6629055,9.37678111 L21.6629055,9.37678111 C21.2706757,8.70728728 19.9342223,6.70939069 19.4899346,5.97285928 L19.4899346,5.97285928 C18.9083216,5.00963496 18.7162457,4.70972995 18.607642,4.54654634 L18.607642,4.54654634 C18.5753302,4.4980323 18.5905885,4.494504 18.4505706,4.27574976 L18.4505706,4.27574976 C18.3329914,4.08875017 18.2225926,3.95026462 18.2154122,3.94056181 L18.2154122,3.94056181 C18.1032184,3.80648663 18.0592384,3.63007192 17.9138351,3.61860497 L17.9138351,3.61860497 C17.9147327,3.61860497 17.9165278,3.61684082 17.9147327,3.61331253 L17.9147327,3.61331253 C17.9147327,3.6106663 18.0188486,3.51716651 18.1732273,3.36809608 L18.1732273,3.36809608 C18.3042698,3.24195956 18.4703167,3.07524766 18.6354661,2.89618673 L18.6354661,2.89618673 C18.7494551,2.77093228 18.7826644,2.72506446 18.8778048,2.61656941 L18.8778048,2.61656941 C19.1156559,2.35371149 19.4280036,2.0167594 19.4181305,2.00088207 L19.4181305,2.00088207 C19.1623285,2.00088207 18.8679318,2.00088207 18.5493012,2 L18.5493012,2 C18.2190024,2 17.8617772,2 17.4955764,2.00176415" id="Fill-49"></path>
            </g>
        </g>
    </g>
</svg>